<svg xmlns="http://www.w3.org/2000/svg" width="20.239" height="20.24" viewBox="0 0 20.239 20.24"><path d="M14.771,15.5v1.581a3.166,3.166,0,0,1-3.163,3.163H3.663A3.166,3.166,0,0,1,.5,17.078V3.163A3.166,3.166,0,0,1,3.663,0h7.946a3.166,3.166,0,0,1,3.163,3.163V4.744a.791.791,0,1,1-1.581,0V3.163a1.583,1.583,0,0,0-1.581-1.581H3.663A1.583,1.583,0,0,0,2.081,3.163V17.078a1.583,1.583,0,0,0,1.581,1.581h7.946a1.583,1.583,0,0,0,1.581-1.581V15.5a.791.791,0,1,1,1.581,0Zm5.39-6.734-1.77-1.77A.791.791,0,1,0,17.273,8.11l1.259,1.259H9.039a.791.791,0,1,0,0,1.581h9.493L17.273,12.21a.791.791,0,1,0,1.118,1.118l1.77-1.77a1.979,1.979,0,0,0,0-2.8Zm0,0" transform="translate(-0.5)"/></svg>